<?xml version="1.0" encoding="UTF-8" standalone="no"?>
<!DOCTYPE svg PUBLIC "-//W3C//DTD SVG 1.1//EN" "http://www.w3.org/Graphics/SVG/1.1/DTD/svg11.dtd">
<!-- 
Image by Daniel Roberts from Pixabay
https://pixabay.com/users/BlenderTimer-9538909/?utm_source=link-attribution&amp;utm_medium=referral&amp;utm_campaign=image&amp;utm_content=5550640
--> 
<svg width="100%" height="100%" viewBox="0 0 3841 2160" version="1.1" xmlns="http://www.w3.org/2000/svg" xmlns:xlink="http://www.w3.org/1999/xlink" xml:space="preserve" xmlns:serif="http://www.serif.com/" style="fill-rule:evenodd;clip-rule:evenodd;stroke-linecap:round;stroke-linejoin:round;">
    <g transform="matrix(1.00025,0,0,1.00025,0.000253706,1038.74)">
        <g id="Artboard1">
            <g id="Layer-1" serif:id="Layer 1">
                <g transform="matrix(0.264584,0,0,0.264584,3.66235e-08,-1037.48)">
                    <g id="Background">
                        <path d="M-0.001,-3.78L-0.141,8157.95L14513.5,8157.95L14513.5,-3.78L-0.001,-3.78Z" style="fill:url(#_Linear1);fill-rule:nonzero;"/>
                    </g>
                </g>
                <circle id="Sun" cx="1493.83" cy="398.148" r="516.777" style="fill:rgb(255,196,135);"/>
                <g id="Mountains" transform="matrix(0.264583,0,0,0.264609,0,-1037.7)">
                    <g transform="matrix(1,0,0,0.998591,0,5.67555)">
                        <path d="M3488.1,4028.37L2747.46,5233.56L2668.1,6077.19L1500.34,7565.68L234.567,5876.33L0,6205.86L0,8158.79C0,8161.55 2.228,8163.78 4.99,8163.78L14508.4,8163.78C14511.2,8163.78 14513.5,8161.55 14513.5,8158.79L14513.5,6253.1L13513.2,7242.22L12428.7,6840.49L11749.7,5490.27L10492.8,5345.2L9112.47,4814.03L8778.4,5554.95L8117.11,5755.81L6782.84,6900.68L5734.58,6307L4969.39,4912.18L4387.45,4791.66L3488.1,4028.37Z" style="fill:rgb(101,68,157);"/>
                    </g>
                    <g id="Mountain-Gradient" serif:id="Mountain Gradient">
                        <path d="M0,6318C-0.318,6931.59 0,8157.95 0,8157.95L14513.6,8157.95L14513.6,6318L0,6318Z" style="fill:url(#_Radial2);fill-rule:nonzero;"/>
                    </g>
                    <g transform="matrix(1.00001,0,0,0.992427,-0.0859149,57.9995)">
                        <g id="path3782">
                            <path d="M14311.6,7659.12C12589,7658.12 10507.3,7760.9 8893.2,8161.76L14513.5,8161.76L14513.5,7659.72C14446.8,7659.37 14379.5,7659.16 14311.6,7659.12Z" style="fill:rgb(89,46,125);fill-rule:nonzero;"/>
                        </g>
                    </g>
                </g>
                <g id="Birds">
                    <path id="path4583" d="M2469.93,-5.775C2477.56,-12.717 2485.2,-19.66 2497.09,-23.478C2508.98,-27.297 2525.12,-27.991 2535.53,-24.173C2545.95,-20.354 2550.63,-12.023 2555.49,-11.85C2560.35,-11.676 2565.39,-19.66 2574.67,-23.478C2583.96,-27.297 2597.5,-26.95 2609.21,-23.218C2620.93,-19.486 2630.82,-12.37 2640.71,-5.254" style="fill:none;fill-rule:nonzero;stroke:rgb(68,45,94);stroke-width:12.95px;"/>
                    <path id="path4661" d="M2259.48,227.579C2263.13,224.258 2266.78,220.938 2272.47,219.112C2278.16,217.285 2285.88,216.953 2290.86,218.78C2295.84,220.606 2298.08,224.591 2300.4,224.674C2302.73,224.757 2305.14,220.938 2309.58,219.112C2314.02,217.285 2320.49,217.451 2326.1,219.236C2331.7,221.021 2336.43,224.425 2341.16,227.828" style="fill:none;fill-rule:nonzero;stroke:rgb(68,45,94);stroke-width:6.19px;"/>
                    <path id="path4665" d="M2637.85,129.229C2643.78,123.837 2649.71,118.444 2658.95,115.479C2668.18,112.513 2680.72,111.974 2688.81,114.94C2696.89,117.905 2700.53,124.376 2704.31,124.511C2708.08,124.645 2711.99,118.444 2719.2,115.479C2726.42,112.513 2736.93,112.783 2746.03,115.681C2755.13,118.579 2762.81,124.106 2770.5,129.633" style="fill:none;fill-rule:nonzero;stroke:rgb(68,45,94);stroke-width:10.06px;"/>
                </g>
                <g id="Trees" transform="matrix(1,0,0,0.999778,0,-1.29203)">
                    <path id="path3784" d="M3216.38,894.981L3397.79,242.696L3581.44,887.652L3451.54,885.82L3449.3,966.439L3469.46,1065.38L3314.92,1063.55L3339.56,986.594L3346.28,953.613L3348.52,887.652L3216.38,894.981Z" style="fill:rgb(89,46,125);fill-rule:nonzero;"/>
                    <path id="path3786" d="M3069.87,964.544L3171.96,381.472L3275.32,957.992L3202.21,956.354L3200.95,1028.42L3212.3,1116.86L3125.33,1115.23L3139.19,1046.44L3142.97,1016.95L3144.24,957.992L3069.87,964.544Z" style="fill:rgb(89,46,125);fill-rule:nonzero;"/>
                    <path id="path3788" d="M2900.16,894.683L3044.43,217.423L3190.47,887.074L3087.17,885.171L3085.39,968.878L3101.42,1071.61L2978.53,1069.71L2998.12,989.804L3003.46,955.561L3005.24,887.074L2900.16,894.683Z" style="fill:rgb(89,46,125);fill-rule:nonzero;"/>
                    <g id="path3790" transform="matrix(0.264583,0,0,0.264583,0,-1037.48)">
                        <path d="M10480.2,6111.27L9935,7806.46L10332.1,7787.41L10325.4,7958.84L10305.2,8044.55L10261.1,8163.78L10675.5,8163.78L10635.1,7992.16L10641.8,7782.65L11032.2,7787.41L10480.2,6111.27Z" style="fill:rgb(89,46,125);fill-rule:nonzero;"/>
                    </g>
                    <path id="path3792" d="M3474.32,947.314L3545.26,609.862L3617.09,943.523L3566.29,942.575L3565.41,984.283L3573.29,1035.47L3512.86,1034.52L3522.49,994.709L3525.12,977.647L3525.99,943.523L3474.32,947.314Z" style="fill:rgb(89,46,125);fill-rule:nonzero;"/>
                    <g id="path3794" transform="matrix(0.264583,0,0,0.264583,0,-1037.48)">
                        <path d="M9052.5,5130.24L8516.82,7777.65L8907.01,7747.91L8900.4,8015.62L8880.55,8149.49L8877.22,8163.78L9218.85,8163.78L9204.61,8067.68L9211.23,7740.47L9594.8,7747.91L9052.5,5130.24Z" style="fill:rgb(89,46,125);fill-rule:nonzero;"/>
                    </g>
                    <g id="path3796" transform="matrix(0.264583,0,0,0.264583,0,-1037.48)">
                        <path d="M7304.04,7091.39L7042.44,8163.78L7571.87,8163.78L7304.04,7091.39Z" style="fill:rgb(89,46,125);fill-rule:nonzero;"/>
                    </g>
                    <g id="path3798" transform="matrix(0.264583,0,0,0.264583,0,-1037.48)">
                        <path d="M7995.73,6283.86L7574.7,8153.8L7881.38,8132.79L7880.53,8163.78L8119.66,8163.78L8120.48,8127.54L8421.95,8132.79L7995.73,6283.86Z" style="fill:rgb(89,46,125);fill-rule:nonzero;"/>
                    </g>
                    <g id="path3800" transform="matrix(0.264583,0,0,0.264583,0,-1037.48)">
                        <path d="M8619.37,5726.28L7997.69,7885.87L8450.52,7861.6L8442.84,8079.99L8425.18,8163.78L8804.61,8163.78L8795.89,8122.45L8803.57,7855.53L9248.71,7861.6L8619.37,5726.28Z" style="fill:rgb(89,46,125);fill-rule:nonzero;"/>
                    </g>
                    <g id="path3802" transform="matrix(0.264583,0,0,0.264583,0,-1037.48)">
                        <path d="M9735.7,5591.69L9305.12,7751.28L9618.76,7727.02L9613.44,7945.4L9597.49,8054.59L9572.43,8163.78L9883.66,8163.78L9857.97,7987.86L9863.28,7720.95L10171.6,7727.02L9735.7,5591.69Z" style="fill:rgb(89,46,125);fill-rule:nonzero;"/>
                    </g>
                    <path id="path3804" d="M2823.16,939.576L2919.39,533.556L3016.81,935.014L2947.91,933.874L2946.72,984.056L2957.41,1045.64L2875.44,1044.5L2888.51,996.602L2892.07,976.073L2893.26,935.014L2823.16,939.576Z" style="fill:rgb(89,46,125);fill-rule:nonzero;"/>
                    <g id="path3806" transform="matrix(0.264583,0,0,0.264583,0,-1037.48)">
                        <path d="M1531.7,7928.3C975.353,7928.61 456.39,7939.34 0,7954.24L0,8157.99L4.99,8157.99L5617.62,8163.78C4277.33,7981.42 2808.08,7927.57 1531.7,7928.3Z" style="fill:rgb(89,46,125);fill-rule:nonzero;"/>
                    </g>
                    <g id="path3808" transform="matrix(0.264583,0,0,0.264583,0,-1037.48)">
                        <path d="M167.407,4304.2L-0.037,5113.53L0,7496.01L112.877,7488.21L106.1,7736.54L85.778,7860.71L11.272,8150.43L478.657,8157.32L417.697,7784.83L424.466,7481.32L817.345,7488.21L167.407,4304.2Z" style="fill:rgb(89,46,125);fill-rule:nonzero;"/>
                    </g>
                    <g id="path3810" transform="matrix(0.264583,0,0,0.264583,0,-1037.48)">
                        <path d="M1500.79,4175.68L751.476,7408.83L1297.27,7372.51L1288.02,7699.46L1260.27,7862.93L1180.02,8163.78L1781.6,8163.78L1713.56,7763.03L1722.82,7363.43L2259.36,7372.51L1500.79,4175.68Z" style="fill:rgb(89,46,125);fill-rule:nonzero;"/>
                    </g>
                    <path id="path3812" d="M97.086,1001.65L206.864,545.522L317.998,996.528L239.391,995.246L238.036,1051.62L250.233,1120.81L156.718,1119.53L171.627,1065.72L175.693,1042.65L177.048,996.528L97.086,1001.65Z" style="fill:rgb(89,46,125);fill-rule:nonzero;"/>
                    <g id="path3814" transform="matrix(0.264583,0,0,0.264583,0,-1037.48)">
                        <path d="M2262.91,6348.31L1943.54,7828.36L2176.17,7811.73L2172.22,7961.4L2160.39,8036.23L2128.72,8163.78L2380.98,8163.78L2353.59,7990.5L2357.53,7807.57L2586.22,7811.73L2262.91,6348.31Z" style="fill:rgb(89,46,125);fill-rule:nonzero;"/>
                    </g>
                    <g id="path3816" transform="matrix(0.264583,0,0,0.264583,0,-1037.48)">
                        <path d="M6318.24,5771.51L5750.46,8013.78L6164.03,7988.59L6158.61,8163.78L6481.88,8163.78L6486.47,7982.28L6893.03,7988.59L6318.24,5771.51Z" style="fill:rgb(89,46,125);fill-rule:nonzero;"/>
                    </g>
                    <g id="path3818" transform="matrix(0.264583,0,0,0.264583,0,-1037.48)">
                        <path d="M5551.17,7098.16L5308.24,7983.68L5485.19,7973.73L5482.19,8063.27L5473.19,8108.05L5455.59,8163.78L5636.85,8163.78L5620.15,8080.68L5623.15,7971.24L5797.1,7973.73L5551.17,7098.16Z" style="fill:rgb(89,46,125);fill-rule:nonzero;"/>
                    </g>
                    <g id="path3820" transform="matrix(0.264583,0,0,0.264583,0,-1037.48)">
                        <path d="M5126.65,6232.95L4635.3,8048.38L4993.2,8027.98L4988.71,8163.78L5268.43,8163.78L5272.23,8022.88L5624.06,8027.98L5126.65,6232.95Z" style="fill:rgb(89,46,125);fill-rule:nonzero;"/>
                    </g>
                    <g id="path3822" transform="matrix(0.264583,0,0,0.264583,0,-1037.48)">
                        <path d="M4357.22,5156.24L3808.55,7688.16L4208.2,7659.71L4201.43,7915.75L4181.1,8043.76L4151.16,8163.78L4544.48,8163.78L4513.01,7965.53L4519.79,7652.6L4912.67,7659.71L4357.22,5156.24Z" style="fill:rgb(89,46,125);fill-rule:nonzero;"/>
                    </g>
                    <g id="path3824" transform="matrix(0.264583,0,0,0.264583,0,-1037.48)">
                        <path d="M3366.62,5560.01L2751.07,7802.28L3199.44,7777.09L3191.83,8003.84L3169.04,8117.21L3154.32,8163.78L3564.71,8163.78L3541.41,8047.92L3549.01,7770.79L3989.78,7777.09L3366.62,5560.01Z" style="fill:rgb(89,46,125);fill-rule:nonzero;"/>
                    </g>
                    <g id="path3826" transform="matrix(0.264583,0,0,0.264583,0,-1037.48)">
                        <path d="M2627.27,6713.62L2308.88,8163.78L2953.26,8163.78L2627.27,6713.62Z" style="fill:rgb(89,46,125);fill-rule:nonzero;"/>
                    </g>
                    <g transform="matrix(0.264583,0,0,0.264213,-5.35594e-12,-1036)">
                        <g id="path3010">
                            <path d="M14238.3,4002.63L13441.2,7327.26L14021.8,7289.9L14012,7626.1L13982.4,7794.2L13880.4,8163.78L14508.4,8163.78C14511.2,8163.78 14513.5,8161.55 14513.5,8158.79L14513.4,7969.1L14464.6,7691.48L14474.6,7496L14513.6,7496.63L14513.6,5123.28L14238.3,4002.63Z" style="fill:rgb(89,46,125);fill-rule:nonzero;"/>
                        </g>
                    </g>
                </g>
            </g>
        </g>
    </g>
    <defs>
        <linearGradient id="_Linear1" x1="0" y1="0" x2="1" y2="0" gradientUnits="userSpaceOnUse" gradientTransform="matrix(-84.1175,8000.2,-8000.2,-84.1175,6967.39,-954.884)"><stop offset="0" style="stop-color:rgb(114,125,255);stop-opacity:1"/><stop offset="1" style="stop-color:rgb(255,171,135);stop-opacity:1"/></linearGradient>
        <radialGradient id="_Radial2" cx="0" cy="0" r="1" gradientUnits="userSpaceOnUse" gradientTransform="matrix(-4.16341,-1738.59,35986.6,-98.708,7655.35,8349.85)"><stop offset="0" style="stop-color:rgb(214,214,228);stop-opacity:0.36"/><stop offset="1" style="stop-color:rgb(184,187,200);stop-opacity:0"/></radialGradient>
    </defs>
</svg>
